<?xml version="1.0" encoding="UTF-8" standalone="no"?>
<!DOCTYPE svg PUBLIC "-//W3C//DTD SVG 1.1//EN" "http://www.w3.org/Graphics/SVG/1.1/DTD/svg11.dtd">
<svg width="100%" height="100%" viewBox="0 0 24 24" version="1.1" xmlns="http://www.w3.org/2000/svg" xmlns:xlink="http://www.w3.org/1999/xlink" xml:space="preserve" xmlns:serif="http://www.serif.com/" style="fill-rule:evenodd;clip-rule:evenodd;stroke-linecap:round;stroke-linejoin:round;">
    <g transform="matrix(1,0,0,1,-0.00895141,0.5)">
        <g transform="matrix(1.13892,0,0,1.13892,-2.22749,-1.59752)">
            <path d="M10,2L10,4" style="fill:none;fill-rule:nonzero;stroke:rgb(88,163,153);stroke-width:2px;"/>
        </g>
        <g transform="matrix(1.13892,0,0,1.13892,-2.22749,-1.59752)">
            <path d="M14,2L14,4" style="fill:none;fill-rule:nonzero;stroke:rgb(88,163,153);stroke-width:2px;"/>
        </g>
        <g transform="matrix(1.13892,0,0,1.13892,-2.22749,-1.59752)">
            <path d="M16,8C16.549,8 17,8.451 17,9L17,17C17,19.194 15.194,21 13,21L7,21C4.806,21 3,19.194 3,17L3,9C3,8.451 3.451,8 4,8L18,8C20.194,8 22,9.806 22,12C22,14.194 20.194,16 18,16L17,16" style="fill:none;fill-rule:nonzero;stroke:rgb(88,163,153);stroke-width:2px;"/>
        </g>
        <g transform="matrix(1.13892,0,0,1.13892,-2.22749,-1.59752)">
            <path d="M6,2L6,4" style="fill:none;fill-rule:nonzero;stroke:rgb(88,163,153);stroke-width:2px;"/>
        </g>
    </g>
</svg>
