<?xml version="1.0" encoding="UTF-8" standalone="no"?>
<!DOCTYPE svg PUBLIC "-//W3C//DTD SVG 1.1//EN" "http://www.w3.org/Graphics/SVG/1.1/DTD/svg11.dtd">
<svg width="100%" height="100%" viewBox="0 0 24 24" version="1.1" xmlns="http://www.w3.org/2000/svg" xmlns:xlink="http://www.w3.org/1999/xlink" xml:space="preserve" xmlns:serif="http://www.serif.com/" style="fill-rule:evenodd;clip-rule:evenodd;stroke-linecap:round;stroke-linejoin:round;">
    <g transform="matrix(1.089,0,0,1.089,-1.06803,-1.06774)">
        <g>
            <path d="M2,12L22,12" style="fill:none;fill-rule:nonzero;stroke:rgb(88,163,153);stroke-width:2px;"/>
            <path d="M20,12L20,20C20,21.097 19.097,22 18,22L6,22C4.903,22 4,21.097 4,20L4,12" style="fill:none;fill-rule:nonzero;stroke:rgb(88,163,153);stroke-width:2px;"/>
            <path d="M4,8L20,4" style="fill:none;fill-rule:nonzero;stroke:rgb(88,163,153);stroke-width:2px;"/>
            <path d="M8.86,6.78L8.41,4.97C8.369,4.81 8.349,4.645 8.349,4.479C8.349,3.566 8.974,2.763 9.86,2.54L11.8,2.06C11.96,2.02 12.124,1.999 12.288,1.999C13.205,1.999 14.01,2.63 14.23,3.52L14.68,5.32" style="fill:none;fill-rule:nonzero;stroke:rgb(88,163,153);stroke-width:2px;"/>
        </g>
    </g>
</svg>
