<?xml version="1.0" encoding="UTF-8" standalone="no"?>
<!DOCTYPE svg PUBLIC "-//W3C//DTD SVG 1.1//EN" "http://www.w3.org/Graphics/SVG/1.1/DTD/svg11.dtd">
<svg width="100%" height="100%" viewBox="0 0 24 24" version="1.1" xmlns="http://www.w3.org/2000/svg" xmlns:xlink="http://www.w3.org/1999/xlink" xml:space="preserve" xmlns:serif="http://www.serif.com/" style="fill-rule:evenodd;clip-rule:evenodd;stroke-linecap:round;stroke-linejoin:round;">
    <g transform="matrix(1.09207,0,0,1.09207,-1.10486,-1.10486)">
        <path d="M4.6,13.11L10.39,9.9C12.28,8.85 15.18,11.68 14.1,13.61L10.88,19.42C8.8,23.16 0.79,15.23 4.6,13.11Z" style="fill:none;fill-rule:nonzero;stroke:rgb(88,163,153);stroke-width:2px;"/>
    </g>
    <g transform="matrix(1.09207,0,0,1.09207,-1.10486,-1.10486)">
        <path d="M10.5,9.5L9.5,7.21C9.2,6.48 8.8,6 8,6L4.5,6C2.79,6 2,6.5 2,8.5C2.084,10.293 2.791,12.002 4,13.33" style="fill:none;fill-rule:nonzero;stroke:rgb(88,163,153);stroke-width:2px;"/>
    </g>
    <g transform="matrix(1.09207,0,0,1.09207,-1.10486,-1.10486)">
        <path d="M8,6C8,4.45 8.24,2 6,2C4,2 3.5,4.17 3.5,6" style="fill:none;fill-rule:nonzero;stroke:rgb(88,163,153);stroke-width:2px;"/>
    </g>
    <g transform="matrix(1.09207,0,0,1.09207,-1.10486,-1.10486)">
        <path d="M14.5,13.5L16.79,14.5C17.52,14.8 18,15.2 18,16L18,19.5C18,21.21 17.5,22 15.5,22C13.707,21.916 11.998,21.209 10.67,20" style="fill:none;fill-rule:nonzero;stroke:rgb(88,163,153);stroke-width:2px;"/>
    </g>
    <g transform="matrix(1.09207,0,0,1.09207,-1.10486,-1.10486)">
        <path d="M18,16C19.55,16 22,15.76 22,18C22,20 19.83,20.5 18,20.5" style="fill:none;fill-rule:nonzero;stroke:rgb(88,163,153);stroke-width:2px;"/>
    </g>
</svg>
