<?xml version="1.0" encoding="UTF-8" standalone="no"?>
<!DOCTYPE svg PUBLIC "-//W3C//DTD SVG 1.1//EN" "http://www.w3.org/Graphics/SVG/1.1/DTD/svg11.dtd">
<svg width="100%" height="100%" viewBox="0 0 24 24" version="1.1" xmlns="http://www.w3.org/2000/svg" xmlns:xlink="http://www.w3.org/1999/xlink" xml:space="preserve" xmlns:serif="http://www.serif.com/" style="fill-rule:evenodd;clip-rule:evenodd;stroke-linecap:round;stroke-linejoin:round;">
    <g transform="matrix(1,0,0,1,-0.0153453,0.0433981)">
        <g transform="matrix(1.09054,0,0,1.09054,-1.0711,-1.08252)">
            <circle cx="12" cy="4" r="2" style="fill:none;stroke:rgb(88,163,153);stroke-width:2px;"/>
        </g>
        <g transform="matrix(1.09054,0,0,1.09054,-1.0711,-1.08252)">
            <path d="M10.2,3.2C5.5,4 2,8.1 2,13C2,14.097 2.903,15 4,15C5.097,15 6,14.097 6,13L6,12C6,10.903 6.903,10 8,10C9.097,10 10,10.903 10,12L10,16C10,17.097 10.903,18 12,18C13.097,18 14,17.097 14,16L14,12C14,10.903 14.903,10 16,10C17.097,10 18,10.903 18,12L18,13C18,14.097 18.903,15 20,15C21.097,15 22,14.097 22,13C22,8.1 18.5,4 13.8,3.2" style="fill:none;fill-rule:nonzero;stroke:rgb(88,163,153);stroke-width:2px;"/>
        </g>
        <g transform="matrix(1.09054,0,0,1.09054,-1.0711,-1.08252)">
            <path d="M3.2,14.8C4.086,18.934 7.772,21.913 12,21.913C16.228,21.913 19.914,18.934 20.8,14.8" style="fill:none;fill-rule:nonzero;stroke:rgb(88,163,153);stroke-width:2px;"/>
        </g>
    </g>
</svg>
