<?xml version="1.0" encoding="UTF-8" standalone="no"?>
<!DOCTYPE svg PUBLIC "-//W3C//DTD SVG 1.1//EN" "http://www.w3.org/Graphics/SVG/1.1/DTD/svg11.dtd">
<svg width="100%" height="100%" viewBox="0 0 24 24" version="1.1" xmlns="http://www.w3.org/2000/svg" xmlns:xlink="http://www.w3.org/1999/xlink" xml:space="preserve" xmlns:serif="http://www.serif.com/" style="fill-rule:evenodd;clip-rule:evenodd;stroke-linecap:round;stroke-linejoin:round;">
    <g transform="matrix(1.14053,0,0,1.14053,-2.26302,-1.68636)">
        <path d="M12,21C16.937,21 21,16.937 21,12L3,12C3,16.937 7.063,21 12,21Z" style="fill:none;fill-rule:nonzero;stroke:rgb(88,163,153);stroke-width:2px;"/>
    </g>
    <g transform="matrix(1.14053,0,0,1.14053,-2.26302,-1.68636)">
        <path d="M7,21L17,21" style="fill:none;fill-rule:nonzero;stroke:rgb(88,163,153);stroke-width:2px;"/>
    </g>
    <g transform="matrix(1.14053,0,0,1.14053,-2.26302,-1.68636)">
        <path d="M19.5,12L22,6" style="fill:none;fill-rule:nonzero;stroke:rgb(88,163,153);stroke-width:2px;"/>
    </g>
    <g transform="matrix(1.14053,0,0,1.14053,-2.26302,-1.68636)">
        <path d="M16.25,3C16.52,3.1 17.05,3.53 17,4.36C16.94,5.19 16.07,5.56 16,6.38C15.95,7.16 16.34,7.62 16.73,8" style="fill:none;fill-rule:nonzero;stroke:rgb(88,163,153);stroke-width:2px;"/>
    </g>
    <g transform="matrix(1.14053,0,0,1.14053,-2.26302,-1.68636)">
        <path d="M11.25,3C11.52,3.1 12.05,3.53 11.99,4.36C11.94,5.19 11.06,5.56 11.01,6.38C10.95,7.16 11.34,7.62 11.73,8" style="fill:none;fill-rule:nonzero;stroke:rgb(88,163,153);stroke-width:2px;"/>
    </g>
    <g transform="matrix(1.14053,0,0,1.14053,-2.26302,-1.68636)">
        <path d="M6.25,3C6.52,3.1 7.05,3.53 7,4.36C6.94,5.19 6.07,5.56 6,6.38C5.95,7.16 6.34,7.62 6.74,8" style="fill:none;fill-rule:nonzero;stroke:rgb(88,163,153);stroke-width:2px;"/>
    </g>
</svg>
